<svg width="132" height="28" viewBox="0 0 132 28" fill="none" xmlns="http://www.w3.org/2000/svg">
<g clip-path="url(#clip0_83_108)">
<path fill-rule="evenodd" clip-rule="evenodd" d="M14 0C6.27115 0 0 6.27115 0 14C0 21.7289 6.27115 28 14 28C21.7137 28 28 21.7289 28 14C28 6.27115 21.7137 0 14 0ZM23.2473 6.45336C24.9176 8.48807 25.9198 11.0846 25.9502 13.8937C25.5554 13.8178 21.6073 13.013 17.6291 13.5141C17.538 13.3167 17.462 13.1041 17.3709 12.8916C17.128 12.3146 16.8547 11.7224 16.5813 11.1605C20.9848 9.3688 22.9891 6.78742 23.2473 6.45336ZM14 2.06508C17.0369 2.06508 19.8156 3.20391 21.9263 5.07159C21.7137 5.37528 19.9067 7.78959 15.6551 9.38394C13.6963 5.78525 11.525 2.83948 11.1909 2.38395C12.0867 2.17137 13.0282 2.06508 14 2.06508ZM8.91328 3.18872C9.23213 3.61388 11.3579 6.57484 13.3471 10.0976C7.75922 11.5857 2.8243 11.5553 2.29284 11.5553C3.06724 7.85033 5.57267 4.76789 8.91328 3.18872ZM2.03471 14.0152C2.03471 13.8937 2.03471 13.7722 2.03471 13.6508C2.55098 13.6659 8.35142 13.7419 14.3189 11.9501C14.6682 12.6182 14.987 13.3015 15.2907 13.9848C15.1388 14.0304 14.9718 14.076 14.82 14.1215C8.6551 16.1106 5.37528 21.5466 5.10195 22.0021C3.2039 19.8916 2.03471 17.0825 2.03471 14.0152ZM14 25.9653C11.2364 25.9653 8.68547 25.0239 6.66595 23.4447C6.87853 23.0044 9.30799 18.3276 16.0499 15.974C16.0802 15.9588 16.0955 15.9588 16.1258 15.9436C17.8112 20.3015 18.4946 23.9609 18.6768 25.0086C17.2343 25.6312 15.6551 25.9653 14 25.9653ZM20.6659 23.9154C20.5445 23.1865 19.9067 19.6942 18.3427 15.3969C22.0933 14.8047 25.3731 15.7766 25.7831 15.9133C25.2669 19.2386 23.3536 22.1085 20.6659 23.9154Z" fill="black"/>
</g>
<path d="M71.7512 4.5H74.818L68.1179 12.5482L76 23.5H69.8284L64.9946 16.8578L59.4636 23.5H56.3949L63.5613 14.8915L56 4.5H62.3283L66.6976 10.5712L71.7512 4.5ZM70.6748 21.5708H72.3742L61.4049 6.3279H59.5813L70.6748 21.5708Z" fill="black"/>
<g clip-path="url(#clip1_83_108)">
<path d="M104 3.73531C104 2.83439 104.315 2.09114 104.946 1.50558C105.577 0.919981 106.396 0.627197 107.405 0.627197C108.396 0.627197 109.198 0.915468 109.811 1.49206C110.441 2.08666 110.757 2.86141 110.757 3.81639C110.757 4.68125 110.45 5.40195 109.838 5.97855C109.207 6.57314 108.378 6.87044 107.351 6.87044H107.324C106.333 6.87044 105.532 6.57314 104.919 5.97855C104.306 5.38395 104 4.6362 104 3.73531ZM104.351 27.384V9.3299H110.351V27.384H104.351ZM113.676 27.384H119.676V17.3029C119.676 16.6722 119.748 16.1857 119.892 15.8434C120.144 15.2308 120.527 14.7128 121.041 14.2894C121.554 13.8659 122.198 13.6542 122.973 13.6542C124.991 13.6542 126 15.0146 126 17.7353V27.384H132V17.0326C132 14.3659 131.369 12.3434 130.108 10.965C128.847 9.58666 127.18 8.89747 125.108 8.89747C122.784 8.89747 120.973 9.89747 119.676 11.8975V11.9515H119.649L119.676 11.8975V9.3299H113.676C113.712 9.90647 113.73 11.6993 113.73 14.7083C113.73 17.7173 113.712 21.9425 113.676 27.384Z" fill="black"/>
</g>
<defs>
<clipPath id="clip0_83_108">
<rect width="28" height="28" rx="6" fill="white"/>
</clipPath>
<clipPath id="clip1_83_108">
<rect width="28" height="28" fill="white" transform="translate(104)"/>
</clipPath>
</defs>
</svg>
