<svg width="28" height="28" viewBox="0 0 28 28" fill="none" xmlns="http://www.w3.org/2000/svg">
<path d="M23.5 9.33333C23.5 9.88562 23.9477 10.3333 24.5 10.3333C25.0523 10.3333 25.5 9.88562 25.5 9.33333H23.5ZM18.6667 2.5C18.1144 2.5 17.6667 2.94772 17.6667 3.5C17.6667 4.05228 18.1144 4.5 18.6667 4.5V2.5ZM13.2929 13.2929C12.9024 13.6834 12.9024 14.3166 13.2929 14.7071C13.6834 15.0976 14.3166 15.0976 14.7071 14.7071L13.2929 13.2929ZM24.4364 3.81851L23.5454 4.27249L23.5454 4.2725L24.4364 3.81851ZM24.1815 3.56358L23.7275 4.45459L23.7275 4.45459L24.1815 3.56358ZM14 6.83333C14.5523 6.83333 15 6.38562 15 5.83333C15 5.28105 14.5523 4.83333 14 4.83333V6.83333ZM23.1667 14C23.1667 13.4477 22.719 13 22.1667 13C21.6144 13 21.1667 13.4477 21.1667 14H23.1667ZM6.04804 23.9914L6.50203 23.1004H6.50203L6.04804 23.9914ZM4.00864 21.952L3.11763 22.4059L4.00864 21.952ZM19.6186 23.9914L19.1646 23.1004L19.6186 23.9914ZM21.658 21.952L20.767 21.498L21.658 21.952ZM4.00864 8.38138L3.11763 7.92739H3.11763L4.00864 8.38138ZM6.04804 6.34197L5.59405 5.45096H5.59405L6.04804 6.34197ZM25.5 9.33333V4.43333H23.5V9.33333H25.5ZM23.5667 2.5H18.6667V4.5H23.5667V2.5ZM23.622 2.96375L13.2929 13.2929L14.7071 14.7071L25.0363 4.37796L23.622 2.96375ZM25.5 4.43333C25.5 4.28649 25.5008 4.11621 25.4887 3.96877C25.4757 3.80966 25.443 3.59137 25.3274 3.36451L23.5454 4.2725C23.4934 4.17042 23.4925 4.0962 23.4954 4.13163C23.4968 4.14874 23.4983 4.17894 23.4991 4.2327C23.5 4.28644 23.5 4.34938 23.5 4.43333H25.5ZM23.5667 4.5C23.6506 4.5 23.7136 4.50003 23.7673 4.50087C23.8211 4.50172 23.8513 4.50323 23.8684 4.50463C23.9038 4.50752 23.8296 4.5066 23.7275 4.45459L24.6355 2.67257C24.4086 2.55698 24.1903 2.52427 24.0312 2.51127C23.8838 2.49922 23.7135 2.5 23.5667 2.5V4.5ZM25.3274 3.36452C25.2515 3.21556 25.153 3.08051 25.0363 2.96375L23.622 4.37796C23.5913 4.34724 23.5654 4.31169 23.5454 4.27249L25.3274 3.36452ZM25.0363 2.96375C24.9195 2.84699 24.7844 2.74847 24.6355 2.67257L23.7275 4.45459C23.6883 4.43461 23.6528 4.40868 23.622 4.37796L25.0363 2.96375ZM14.7 23.5H10.9667V25.5H14.7V23.5ZM4.5 17.0333V13.3H2.5V17.0333H4.5ZM10.9667 6.83333H14V4.83333H10.9667V6.83333ZM21.1667 14V17.0333H23.1667V14H21.1667ZM10.9667 23.5C9.64338 23.5 8.71105 23.4992 7.98304 23.4397C7.26671 23.3812 6.83669 23.2709 6.50203 23.1004L5.59405 24.8824C6.25765 25.2205 6.98016 25.3645 7.82018 25.4331C8.64852 25.5008 9.67638 25.5 10.9667 25.5V23.5ZM2.5 17.0333C2.5 18.3236 2.49922 19.3515 2.5669 20.1798C2.63553 21.0198 2.77951 21.7423 3.11763 22.4059L4.89964 21.498C4.72913 21.1633 4.61879 20.7333 4.56026 20.017C4.50078 19.2889 4.5 18.3566 4.5 17.0333H2.5ZM6.50203 23.1004C5.81211 22.7488 5.25118 22.1879 4.89964 21.498L3.11763 22.4059C3.66091 23.4722 4.5278 24.3391 5.59405 24.8824L6.50203 23.1004ZM14.7 25.5C15.9903 25.5 17.0181 25.5008 17.8465 25.4331C18.6865 25.3645 19.409 25.2205 20.0726 24.8824L19.1646 23.1004C18.83 23.2709 18.4 23.3812 17.6836 23.4397C16.9556 23.4992 16.0233 23.5 14.7 23.5V25.5ZM21.1667 17.0333C21.1667 18.3566 21.1659 19.2889 21.1064 20.017C21.0479 20.7333 20.9375 21.1633 20.767 21.498L22.549 22.4059C22.8872 21.7423 23.0311 21.0198 23.0998 20.1798C23.1674 19.3515 23.1667 18.3236 23.1667 17.0333H21.1667ZM20.0726 24.8824C21.1389 24.3391 22.0058 23.4722 22.549 22.4059L20.767 21.498C20.4155 22.1879 19.8546 22.7488 19.1646 23.1004L20.0726 24.8824ZM4.5 13.3C4.5 11.9767 4.50078 11.0444 4.56026 10.3164C4.61879 9.60004 4.72913 9.17003 4.89964 8.83537L3.11763 7.92739C2.77951 8.59098 2.63553 9.31349 2.5669 10.1535C2.49922 10.9819 2.5 12.0097 2.5 13.3H4.5ZM10.9667 4.83333C9.67638 4.83333 8.64852 4.83256 7.82018 4.90023C6.98016 4.96887 6.25765 5.11284 5.59405 5.45096L6.50203 7.23298C6.83669 7.06246 7.26671 6.95212 7.98304 6.89359C8.71105 6.83411 9.64338 6.83333 10.9667 6.83333V4.83333ZM4.89964 8.83537C5.25118 8.14544 5.81211 7.58451 6.50203 7.23298L5.59405 5.45096C4.5278 5.99425 3.66091 6.86114 3.11763 7.92739L4.89964 8.83537Z" fill="black"/>
</svg>
