<svg width="56" height="56" viewBox="0 0 56 56" fill="none" xmlns="http://www.w3.org/2000/svg">
<rect width="56" height="56" rx="12" fill="black"/>
<path d="M26.1817 20.4002C25.5159 20.9508 25.3494 21.8984 25.3494 21.8984L23.1983 30.1448L21.4312 23.3966C21.2648 22.6795 20.9318 21.796 20.4324 21.1813C19.8179 20.4002 18.5374 20.349 18.3837 20.349C18.2685 20.349 17.0008 20.4002 16.335 21.1813C15.8357 21.796 15.5027 22.6795 15.3363 23.3966L13.6716 30.1448L11.5205 21.8984C11.5205 21.8984 11.354 21.0148 10.6882 20.4002C9.6382 19.4526 8.08887 19.6831 8.08887 19.6831L12.1863 35.1131C12.1863 35.1131 13.518 35.2283 14.1838 34.8954C15.0673 34.4472 15.5155 34.1271 16.0149 32.0143C16.5143 30.1319 17.8459 24.6515 17.9484 24.2673C17.9996 24.1009 18.1149 23.6015 18.4477 23.6015C18.7807 23.6015 18.8959 24.0496 18.9471 24.2673C19.0624 24.6515 20.3812 30.1319 20.8806 32.0143C21.4312 34.1143 21.8154 34.4472 22.7117 34.8954C23.3776 35.2283 24.7092 35.1131 24.7092 35.1131L28.7811 19.6831C28.7811 19.6831 27.2317 19.4654 26.1817 20.4002Z" fill="white"/>
<path d="M31.138 19.9516C30.3697 20.3357 30.0367 21.0528 30.0367 22.9992C30.0367 22.9992 30.4209 22.615 31.0355 22.3846C31.4837 22.218 31.8038 22.0004 32.0343 21.8339C32.7001 21.3345 32.8026 20.7327 32.8026 19.6827C32.7898 19.6827 31.7398 19.6186 31.138 19.9516Z" fill="white"/>
<path d="M32.7904 22.999C32.7904 22.999 32.5088 23.3831 31.9582 23.7161C31.574 23.9337 31.2411 24.049 30.8569 24.2667C30.1911 24.5996 30.0247 24.9325 30.0247 25.4319V35.8936C30.0247 35.8936 31.0747 36.0088 31.7405 35.6759C32.624 35.2277 32.7904 34.7924 32.7904 32.91V22.999Z" fill="white"/>
<path d="M42.8952 27.4293L48.0938 19.7335C48.0938 19.7335 45.9426 19.3494 44.8287 20.3481C44.1116 20.9628 43.3946 22.1153 43.3946 22.1153L41.5123 24.8811C41.3971 25.0475 41.2946 25.1628 41.1281 25.1628C40.9617 25.1628 40.7952 24.9963 40.744 24.8811L38.8617 22.1153C38.8617 22.1153 38.0934 21.014 37.4276 20.3481C36.3264 19.3494 34.1625 19.7335 34.1625 19.7335L39.1946 27.4165L34.0472 35.0994C34.0472 35.0994 36.3136 35.3812 37.4276 34.3824C38.1447 33.7677 38.8105 32.7177 38.8105 32.7177L40.6928 29.9518C40.808 29.7854 40.9105 29.6702 41.0769 29.6702C41.2434 29.6702 41.4099 29.8366 41.4611 29.9518L43.3433 32.7177C43.3433 32.7177 44.0604 33.7677 44.7263 34.3824C45.8274 35.3812 48.0426 35.0994 48.0426 35.0994L42.8952 27.4293Z" fill="white"/>
</svg>
