<svg width="64" height="64" viewBox="0 0 64 64" fill="none" xmlns="http://www.w3.org/2000/svg">
<rect width="64" height="64" rx="14" fill="black"/>
<path d="M30.0929 24.7417C29.427 25.2924 29.2606 26.2399 29.2606 26.2399L27.1094 34.4863L25.3424 27.7381C25.1759 27.021 24.843 26.1375 24.3436 25.5229C23.729 24.7417 22.4485 24.6905 22.2949 24.6905C22.1796 24.6905 20.912 24.7417 20.2461 25.5229C19.7468 26.1375 19.4138 27.021 19.2474 27.7381L17.5828 34.4863L15.4316 26.2399C15.4316 26.2399 15.2652 25.3564 14.5993 24.7417C13.5493 23.7942 12 24.0247 12 24.0247L16.0975 39.4546C16.0975 39.4546 17.4291 39.5699 18.095 39.237C18.9785 38.7888 19.4267 38.4687 19.9261 36.3558C20.4254 34.4735 21.7571 28.993 21.8595 28.6089C21.9108 28.4424 22.026 27.943 22.3589 27.943C22.6918 27.943 22.8071 28.3911 22.8583 28.6089C22.9735 28.993 24.2924 34.4735 24.7918 36.3558C25.3424 38.4558 25.7265 38.7888 26.6228 39.237C27.2887 39.5699 28.6204 39.4546 28.6204 39.4546L32.6922 24.0247C32.6922 24.0247 31.1429 23.807 30.0929 24.7417Z" fill="white"/>
<path d="M35.0485 24.2932C34.2802 24.6772 33.9473 25.3944 33.9473 27.3407C33.9473 27.3407 34.3314 26.9566 34.9461 26.7261C35.3942 26.5596 35.7143 26.3419 35.9448 26.1754C36.6106 25.676 36.7131 25.0742 36.7131 24.0242C36.7003 24.0242 35.6503 23.9602 35.0485 24.2932Z" fill="white"/>
<path d="M36.7013 27.3407C36.7013 27.3407 36.4196 27.7248 35.869 28.0577C35.4849 28.2754 35.152 28.3907 34.7678 28.6084C34.102 28.9413 33.9355 29.2742 33.9355 29.7736V40.2353C33.9355 40.2353 34.9855 40.3505 35.6514 40.0175C36.5349 39.5694 36.7013 39.1341 36.7013 37.2517V27.3407Z" fill="white"/>
<path d="M46.8059 31.7708L52.0046 24.0751C52.0046 24.0751 49.8534 23.6909 48.7394 24.6897C48.0224 25.3043 47.3053 26.4568 47.3053 26.4568L45.4231 29.2226C45.3078 29.3891 45.2053 29.5044 45.0389 29.5044C44.8725 29.5044 44.706 29.3379 44.6548 29.2226L42.7725 26.4568C42.7725 26.4568 42.0042 25.3555 41.3384 24.6897C40.2372 23.6909 38.0732 24.0751 38.0732 24.0751L43.1054 31.758L37.958 39.441C37.958 39.441 40.2244 39.7227 41.3384 38.7239C42.0555 38.1093 42.7213 37.0593 42.7213 37.0593L44.6035 34.2934C44.7188 34.1269 44.8212 34.0117 44.9877 34.0117C45.1541 34.0117 45.3206 34.1782 45.3719 34.2934L47.2541 37.0593C47.2541 37.0593 47.9712 38.1093 48.637 38.7239C49.7382 39.7227 51.9534 39.441 51.9534 39.441L46.8059 31.7708Z" fill="white"/>
</svg>
